<svg t="1710907542797" class="icon" viewBox="0 0 1024 1024" version="1.1" xmlns="http://www.w3.org/2000/svg" p-id="5978"
     width="40" height="40">
    <path d="M545.8 950.8c-1.2 0-2.2 0-3.4-0.2-1.2-0.2-2.2-0.2-3.4-0.6-1.2-0.2-2.2-0.4-3.2-0.8s-2.2-0.8-3.2-1.2-2-1-3-1.4c-1-0.6-2-1.2-2.8-1.8-1-0.6-1.8-1.4-2.6-2-0.8-0.8-1.6-1.4-2.4-2.2-0.8-0.8-1.6-1.6-2.2-2.6-0.8-0.8-1.4-1.8-2-2.8-0.6-1-1.2-2-1.6-3-0.6-1-1-2-1.4-3-0.4-1-0.8-2.2-1-3.2-0.4-1-0.6-2.2-0.8-3.2s-0.4-2.2-0.4-3.4c0-1.2-0.2-2.2 0-3.4V529.2c0-1.2-0.2-2.2-0.4-3.2s-0.6-2.2-1-3.2-1-2-1.6-3c-0.6-1-1.4-1.8-2-2.6-0.8-0.8-1.6-1.4-2.6-2s-1.8-1.2-3-1.6-2-0.8-3.2-1c-1-0.2-2.2-0.4-3.2-0.4H107.8c-1.8 0-3.6 0-5.2-0.4-1.8-0.2-3.4-0.6-5.2-1.2-1.6-0.6-3.4-1.2-5-2s-3.2-1.6-4.6-2.6c-1.4-1-2.8-2.2-4.2-3.4-1.2-1.2-2.4-2.6-3.6-4s-2-2.8-3-4.4c-0.8-1.6-1.6-3.2-2.2-4.8-0.6-2-1.2-4-1.6-6-0.4-2-0.4-4.2-0.4-6.2s0.4-4.2 0.8-6.2 1-4 1.8-6 1.8-3.8 3-5.4c1.2-1.8 2.4-3.4 4-4.8 1.4-1.4 3-2.8 4.8-4 1.8-1.2 3.6-2.2 5.4-3.2L902.6 76c1.6-0.8 3.2-1.4 4.8-1.8 1.6-0.4 3.4-0.8 5-1s3.4-0.4 5.2-0.2c1.8 0 3.4 0.2 5 0.6 1.6 0.4 3.4 0.8 5 1.2 1.6 0.6 3.2 1.2 4.8 2s3 1.6 4.4 2.8c1.4 1 2.6 2.2 3.8 3.4 1.2 1.2 2.4 2.6 3.4 3.8 1 1.4 2 2.8 2.8 4.4 0.8 1.6 1.4 3 2 4.8 0.6 1.6 1 3.2 1.2 5 0.4 1.6 0.4 3.4 0.6 5 0 1.8 0 3.4-0.2 5.2-0.2 1.6-0.6 3.4-1 5s-1 3.2-1.8 4.8l-371.2 810c-0.6 1.4-1.4 2.8-2.4 4.2-0.8 1.4-1.8 2.6-2.8 3.8-1 1.2-2.2 2.4-3.4 3.4-1.2 1-2.6 2-3.8 2.8l-4.2 2.4c-1.4 0.6-3 1.2-4.6 1.6-1.6 0.4-3.2 0.8-4.8 1-1.4 0.4-3 0.6-4.6 0.6z"
          p-id="5979" fill="#1296db"></path>
</svg>